<?xml version="1.0" encoding="utf-8"?>
<!-- Generator: Adobe Illustrator 20.1.0, SVG Export Plug-In . SVG Version: 6.00 Build 0)  -->
<svg version="1.1" id="Capa_1" xmlns="http://www.w3.org/2000/svg" xmlns:xlink="http://www.w3.org/1999/xlink" x="0px" y="0px"
	 viewBox="0 0 1916.9 614.7" style="enable-background:new 0 0 1916.9 614.7;" xml:space="preserve">
<style type="text/css">
	.st0{fill:#03A9F5;}
	.st1{fill:none;}
	.st2{font-family:'OpenSans-Extrabold';}
	.st3{font-size:412px;}
	.st4{fill:#FFFFFF;}
	.st5{font-size:134px;}
</style>
<title>Recurso 6</title>
<g>
	<path class="st0" d="M452.3,350.1C425,338.7,389.2,330,348.6,325c2.3-23.1,3.5-46.4,3.5-69.6c0-23.3-1.1-46.5-3.5-69.7
		c40.6-5.1,76.3-13.8,103.6-25.2C481.6,220.2,481.7,290.3,452.3,350.1L452.3,350.1z M251.6,40.5c2.6-0.1,5.2-0.2,7.7-0.2
		c2.6,0,5.2,0.1,7.7,0.2c15.3,10.4,35.2,49.8,45.7,116.4c-35.6,2.6-71.3,2.5-106.8-0.5C216.5,90,236.3,50.8,251.6,40.5z
		 M198.7,255.3c0-24.3,1.1-46.7,3.1-67c19.5,1.8,39.8,2.6,60.6,2.6c18.1,0,36.3-0.7,54.2-2.1c2,20.2,3.1,42.4,3.1,66.5
		s-1.1,46.3-3.1,66.4c-17.4-1.5-35.6-2.1-54.2-2.1c-20.8,0-41.2,0.8-60.6,2.6C199.9,301.9,198.7,279.6,198.7,255.3z M435.6,132.5
		c-24,9.4-55.3,16.8-91,21.2c-6.4-42.3-17-79.9-31.6-106.7C362.8,60,406.3,90.3,435.6,132.5z M205.6,47.1
		C191.1,73.7,180.5,111,174,152.9c-35.2-4.8-66.4-12.6-89.6-22.4C113.8,89.3,156.7,59.8,205.6,47.1L205.6,47.1z M421.6,450.5
		c57-46.9,92.9-115.8,92.9-195.2C514.6,114.5,400.1,0,259.3,0C133.9,0,29.4,90.8,8,210.2c-2.7,14.9-4,30-4,45.1
		c0,140.8,74.9,251.3,219.3,292.9V612l212.9-122.9l-212.9-123v60.4c-116.5,0-178.6-94.5-178.6-184.1c0.6-10.8,2-21.6,4.3-32.2
		c3.9-18,10.1-35.5,18.5-51.9c26.6,11.8,62,21,102.5,26.5c-4.7,46.9-4.7,94.1,0,140.9c-22.8,2.9-45.3,7.6-67.4,13.9
		c1.2,1.5,2.3,2.9,3.4,4.4c3.5,4.5,6.8,8.9,10.3,12.2l0.8,0.7l0.7,0.9c2.8,3.1,5.9,6,9.2,8.6c15.5-3.7,31.2-6.6,47-8.7
		c2.3,14.3,4.9,28.1,8.1,41.1h0.1c5.2,1.6,9.8,3,13,3.1h1l3.1,0.3v-78l48.1,27.7c5.1-0.1,10.1-0.2,15.2-0.2
		c17.2,0,34.2,0.6,50.3,1.9c-1.9,11.7-4,22.6-6.3,32.5l29,16.8c3.6-14.4,6.8-30,9.2-46.1c35.8,4.4,67,11.8,91,21.2
		c-14.3,20.4-31.9,38.2-52.2,52.6L421.6,450.5z"/>
	<rect x="592.6" y="25" class="st1" width="1171.3" height="353.1"/>
	<rect x="617.6" y="9.4" class="st1" width="1077.4" height="381"/>
	<text transform="matrix(0.8123 0 0 1 617.5898 362.457)" class="st0 st2 st3">GOBIZ</text>
	<rect x="663.6" y="440.4" class="st1" width="1254.3" height="144.6"/>
	<text transform="matrix(0.8123 0 0 1 663.5898 555.2295)" class="st4 st2 st5">Business &amp; Consulting</text>
	<rect x="616.3" y="421.4" class="st1" width="1282.6" height="175.6"/>
</g>
</svg>
